<?xml version="1.0" encoding="UTF-8"?>
<!DOCTYPE svg PUBLIC "-//W3C//DTD SVG 1.1//EN" "http://www.w3.org/Graphics/SVG/1.1/DTD/svg11.dtd">
<svg xmlns="http://www.w3.org/2000/svg" version="1.1" width="957px" height="959px" style="shape-rendering:geometricPrecision; text-rendering:geometricPrecision; image-rendering:optimizeQuality; fill-rule:evenodd; clip-rule:evenodd" xmlns:xlink="http://www.w3.org/1999/xlink">
<g><path style="opacity:1" fill="#bbbbbb" d="M 459.5,107.5 C 449.482,107.41 439.482,107.743 429.5,108.5C 435.26,107 441.26,106.333 447.5,106.5C 451.681,106.501 455.681,106.834 459.5,107.5 Z"/></g>
<g><path style="opacity:1" fill="#f8f8f8" d="M 459.5,107.5 C 480.114,109.648 498.781,116.815 515.5,129C 619.779,203.613 723.779,278.613 827.5,354C 871.349,396.221 887.515,447.387 876,507.5C 868.774,542.351 851.941,571.517 825.5,595C 721.167,674 616.833,753 512.5,832C 496.847,842.16 479.847,848.66 461.5,851.5C 449.815,851.635 438.148,851.302 426.5,850.5C 399.365,845.015 376.865,831.681 359,810.5C 343.833,793.841 332.5,774.841 325,753.5C 322.788,744.943 321.288,736.276 320.5,727.5C 320.381,716.482 320.714,705.482 321.5,694.5C 321.5,694.167 321.5,693.833 321.5,693.5C 322.924,691.485 323.59,689.152 323.5,686.5C 332.185,652.98 351.852,628.147 382.5,612C 403.987,601.089 426.654,593.922 450.5,590.5C 460.054,589.793 469.388,588.46 478.5,586.5C 485.465,585.659 492.465,585.326 499.5,585.5C 504.363,585.181 509.03,585.514 513.5,586.5C 484.44,605.388 455.774,624.888 427.5,645C 392.385,674.628 383.218,710.795 400,753.5C 414.186,777.336 434.019,783.836 459.5,773C 561.5,695.667 663.5,618.333 765.5,541C 783.434,523.965 793.434,503.132 795.5,478.5C 796.896,471.436 796.563,464.436 794.5,457.5C 794.768,455.901 794.434,454.568 793.5,453.5C 793.277,449.838 792.277,446.505 790.5,443.5C 785.392,429.455 777.392,417.288 766.5,407C 663.167,333.333 559.833,259.667 456.5,186C 452.687,184.228 448.687,183.395 444.5,183.5C 440.019,182.352 435.352,182.185 430.5,183C 428.277,183.566 426.277,184.4 424.5,185.5C 407.431,193.422 397.264,206.755 394,225.5C 391.716,255.096 402.549,278.596 426.5,296C 453.192,313.345 480.192,330.178 507.5,346.5C 506.432,347.434 505.099,347.768 503.5,347.5C 468.913,345.013 434.913,339.18 401.5,330C 378.172,322.768 358.672,309.934 343,291.5C 331.608,276.829 325.441,260.162 324.5,241.5C 324.501,233.483 324.834,225.483 325.5,217.5C 325.5,217.167 325.5,216.833 325.5,216.5C 326.924,214.485 327.59,212.152 327.5,209.5C 339.381,171.777 362.048,142.277 395.5,121C 406.129,114.849 417.463,110.682 429.5,108.5C 439.482,107.743 449.482,107.41 459.5,107.5 Z"/></g>
<g><path style="opacity:1" fill="#525152" d="M 444.5,183.5 C 437.711,183.201 431.044,183.868 424.5,185.5C 426.277,184.4 428.277,183.566 430.5,183C 435.352,182.185 440.019,182.352 444.5,183.5 Z"/></g>
<g><path style="opacity:1" fill="#959596" d="M 327.5,209.5 C 327.59,212.152 326.924,214.485 325.5,216.5C 325.41,213.848 326.076,211.515 327.5,209.5 Z"/></g>
<g><path style="opacity:1" fill="#848384" d="M 325.5,217.5 C 324.834,225.483 324.501,233.483 324.5,241.5C 323.835,238.686 323.502,235.686 323.5,232.5C 323.392,227.255 324.058,222.255 325.5,217.5 Z"/></g>
<g><path style="opacity:1" fill="#f6f6f6" d="M 415.5,351.5 C 420.568,353.178 425.902,353.844 431.5,353.5C 446.623,354.645 461.623,356.645 476.5,359.5C 479.322,360.507 482.322,361.34 485.5,362C 464.996,362.168 444.663,362.668 424.5,363.5C 386.794,364.581 349.127,366.248 311.5,368.5C 299.976,368.511 288.642,369.178 277.5,370.5C 249.176,371.72 220.843,372.22 192.5,372C 168.202,367.549 151.536,353.716 142.5,330.5C 233.354,338.209 324.354,345.209 415.5,351.5 Z"/></g>
<g><path style="opacity:1" fill="#848382" d="M 507.5,346.5 C 508.756,346.461 509.756,346.961 510.5,348C 507.961,348.796 505.628,348.629 503.5,347.5C 505.099,347.768 506.432,347.434 507.5,346.5 Z"/></g>
<g><path style="opacity:1" fill="#ababab" d="M 415.5,351.5 C 421.021,351.782 426.354,352.449 431.5,353.5C 425.902,353.844 420.568,353.178 415.5,351.5 Z"/></g>
<g><path style="opacity:1" fill="#f8f8f8" d="M 528.5,354.5 C 534.622,354.28 540.288,355.78 545.5,359C 589.5,387.667 633.5,416.333 677.5,445C 686.894,454.646 689.061,465.812 684,478.5C 681.925,482.579 679.092,486.079 675.5,489C 631.565,516.606 587.898,544.606 544.5,573C 535.742,577.584 527.076,577.584 518.5,573C 516.031,570.559 514.198,567.726 513,564.5C 512.171,499.16 512.504,433.826 514,368.5C 516.749,361.583 521.582,356.917 528.5,354.5 Z"/></g>
<g><path style="opacity:1" fill="#3a3a3a" d="M 476.5,359.5 C 480.514,359.334 484.514,359.501 488.5,360C 486.009,360.626 486.009,361.459 488.5,362.5C 467.177,363.5 445.844,363.833 424.5,363.5C 444.663,362.668 464.996,362.168 485.5,362C 482.322,361.34 479.322,360.507 476.5,359.5 Z"/></g>
<g><path style="opacity:1" fill="#282929" d="M 311.5,368.5 C 300.362,369.897 289.028,370.564 277.5,370.5C 288.642,369.178 299.976,368.511 311.5,368.5 Z"/></g>
<g><path style="opacity:1" fill="#f6f6f7" d="M 301.5,415.5 C 300.711,415.783 300.044,416.283 299.5,417C 303.914,418.237 306.247,421.07 306.5,425.5C 312.743,427.74 315.076,432.073 313.5,438.5C 310.402,438.413 310.068,438.913 312.5,440C 309.998,441.415 307.332,441.581 304.5,440.5C 293.293,438.51 281.96,438.01 270.5,439C 251.216,442.602 242.049,454.102 243,473.5C 245.565,483.563 251.732,490.23 261.5,493.5C 320.544,480.95 378.21,485.617 434.5,507.5C 430.448,511.924 425.782,512.591 420.5,509.5C 418.453,511.015 416.119,511.849 413.5,512C 414.056,512.383 414.389,512.883 414.5,513.5C 366.782,509.56 320.449,515.727 275.5,532C 249.478,542.846 223.144,552.846 196.5,562C 177.186,567.442 157.519,569.442 137.5,568C 110.621,563.985 89.1212,551.152 73,529.5C 69.1512,524.129 66.1512,518.462 64,512.5C 97.598,530.071 132.765,533.904 169.5,524C 192.936,516.855 215.936,508.521 238.5,499C 215.189,485.878 205.023,466.045 208,439.5C 220.018,410.902 241.518,398.402 272.5,402C 283.518,403.846 293.185,408.346 301.5,415.5 Z"/></g>
<g><path style="opacity:1" fill="#e1e0e0" d="M 301.5,415.5 C 306.102,418.267 309.936,421.934 313,426.5C 317.226,432.286 320.393,438.619 322.5,445.5C 322,445.833 321.5,446.167 321,446.5C 315.429,444.368 309.929,442.368 304.5,440.5C 307.332,441.581 309.998,441.415 312.5,440C 310.068,438.913 310.402,438.413 313.5,438.5C 315.076,432.073 312.743,427.74 306.5,425.5C 306.247,421.07 303.914,418.237 299.5,417C 300.044,416.283 300.711,415.783 301.5,415.5 Z"/></g>
<g><path style="opacity:1" fill="#4e4d4e" d="M 790.5,443.5 C 792.277,446.505 793.277,449.838 793.5,453.5C 791.723,450.495 790.723,447.162 790.5,443.5 Z"/></g>
<g><path style="opacity:1" fill="#7c7b7d" d="M 794.5,457.5 C 796.563,464.436 796.896,471.436 795.5,478.5C 795.332,471.49 794.999,464.49 794.5,457.5 Z"/></g>
<g><path style="opacity:1" fill="#e7e7e7" d="M 434.5,507.5 C 451.375,513.678 467.708,521.012 483.5,529.5C 484.521,530.002 484.688,530.668 484,531.5C 475.738,527.745 467.238,524.579 458.5,522C 443.756,518.824 429.089,515.991 414.5,513.5C 414.389,512.883 414.056,512.383 413.5,512C 416.119,511.849 418.453,511.015 420.5,509.5C 425.782,512.591 430.448,511.924 434.5,507.5 Z"/></g>
<g><path style="opacity:1" fill="#b2b3b2" d="M 413.5,555.5 C 396.502,554.237 379.502,554.237 362.5,555.5C 379.494,552.932 396.494,552.932 413.5,555.5 Z"/></g>
<g><path style="opacity:1" fill="#f6f6f6" d="M 413.5,555.5 C 439.134,557.935 464.134,563.268 488.5,571.5C 477.167,572.167 465.833,572.833 454.5,573.5C 412.723,575.028 373.056,584.861 335.5,603C 314.626,614.27 293.626,625.27 272.5,636C 246.812,647.922 219.812,652.589 191.5,650C 161.082,643.382 139.082,626.549 125.5,599.5C 140.68,608.046 157.013,612.713 174.5,613.5C 186.64,614.548 198.807,614.548 211,613.5C 213.323,612.281 215.49,610.948 217.5,609.5C 228.653,606.171 239.653,602.337 250.5,598C 271.589,587.122 292.922,576.789 314.5,567C 325.822,562.503 337.489,559.336 349.5,557.5C 354.1,557.72 358.433,557.054 362.5,555.5C 379.502,554.237 396.502,554.237 413.5,555.5 Z"/></g>
<g><path style="opacity:1" fill="#babab9" d="M 362.5,555.5 C 358.433,557.054 354.1,557.72 349.5,557.5C 353.567,555.946 357.9,555.28 362.5,555.5 Z"/></g>
<g><path style="opacity:1" fill="#545453" d="M 488.5,571.5 C 489.675,571.281 490.675,571.614 491.5,572.5C 479.185,573.499 466.851,573.832 454.5,573.5C 465.833,572.833 477.167,572.167 488.5,571.5 Z"/></g>
<g><path style="opacity:1" fill="#707171" d="M 499.5,585.5 C 504.348,584.186 509.348,584.186 514.5,585.5C 514.376,586.107 514.043,586.44 513.5,586.5C 509.03,585.514 504.363,585.181 499.5,585.5 Z"/></g>
<g><path style="opacity:1" fill="#a0a0a0" d="M 478.5,586.5 C 469.388,588.46 460.054,589.793 450.5,590.5C 459.559,588.158 468.893,586.825 478.5,586.5 Z"/></g>
<g><path style="opacity:1" fill="#c7c8c8" d="M 217.5,609.5 C 215.49,610.948 213.323,612.281 211,613.5C 198.807,614.548 186.64,614.548 174.5,613.5C 181.841,613.666 189.174,613.5 196.5,613C 203.503,611.786 210.503,610.619 217.5,609.5 Z"/></g>
<g><path style="opacity:1" fill="#9e9c9f" d="M 323.5,686.5 C 323.59,689.152 322.924,691.485 321.5,693.5C 321.41,690.848 322.076,688.515 323.5,686.5 Z"/></g>
<g><path style="opacity:1" fill="#b2b2b2" d="M 321.5,694.5 C 320.714,705.482 320.381,716.482 320.5,727.5C 319.834,723.18 319.501,718.68 319.5,714C 319.314,707.262 319.981,700.762 321.5,694.5 Z"/></g>
<g><path style="opacity:1" fill="#a8a9a9" d="M 426.5,850.5 C 438.148,851.302 449.815,851.635 461.5,851.5C 456.845,852.166 452.012,852.499 447,852.5C 439.93,852.697 433.097,852.03 426.5,850.5 Z"/></g>
</svg>
